
<svg version="1.0" xmlns="http://www.w3.org/2000/svg"
 width="2000.000000pt" height="2000.000000pt" viewBox="0 0 2000.000000 2000.000000"
 preserveAspectRatio="xMidYMid meet">

<g transform="translate(0.000000,2000.000000) scale(0.100000,-0.100000)"
fill="#000000" stroke="none">
<path d="M6455 13253 c-187 -69 -342 -127 -344 -129 -6 -6 363 -1004 371
-1004 5 0 163 57 352 127 l345 126 -18 46 c-10 25 -94 252 -187 503 -93 252
-171 458 -174 457 -3 0 -158 -57 -345 -126z"/>
<path d="M5465 13083 c-187 -69 -342 -127 -344 -129 -6 -6 363 -1004 371
-1004 5 0 163 57 352 127 l345 126 -18 46 c-10 25 -94 252 -187 503 -93 252
-171 458 -174 457 -3 0 -158 -57 -345 -126z"/>
<path d="M16225 12823 c-187 -69 -342 -127 -344 -129 -2 -2 79 -229 180 -504
120 -325 189 -500 198 -500 7 0 168 57 356 127 l343 126 -17 46 c-10 25 -94
252 -187 503 -93 252 -173 458 -179 458 -5 -1 -163 -57 -350 -127z"/>
<path d="M13630 10615 l0 -2205 385 0 385 0 1 1188 c1 653 4 1199 8 1214 l6
28 79 -45 c43 -25 80 -45 81 -45 5 0 363 624 367 638 2 8 -100 73 -262 167
l-265 153 -3 556 -2 556 -390 0 -390 0 0 -2205z"/>
<path d="M15255 12593 c-187 -69 -342 -127 -344 -129 -2 -2 79 -229 180 -504
120 -325 189 -500 198 -500 7 0 168 57 356 127 l343 126 -17 46 c-10 25 -94
252 -187 503 -93 252 -173 458 -179 458 -5 -1 -163 -57 -350 -127z"/>
<path d="M3050 11112 c0 -1036 4 -1626 10 -1680 26 -202 104 -408 204 -534
130 -164 326 -265 617 -319 l124 -23 1373 -4 1372 -3 0 331 0 330 -1277 0
c-1396 1 -1373 0 -1498 58 -78 37 -125 95 -158 197 -22 69 -22 78 -22 594 l0
524 629 168 c346 93 630 170 631 171 2 3 -185 711 -190 716 -1 1 -243 -62
-539 -141 l-536 -144 0 679 0 678 -370 0 -370 0 0 -1598z"/>
<path d="M9808 10503 c-3 -1160 -4 -2110 -2 -2111 1 -2 77 39 168 92 92 53
168 96 170 96 2 0 172 97 378 217 205 119 438 254 518 300 80 46 149 88 153
92 10 10 -351 641 -366 641 -5 0 -72 -36 -148 -80 -76 -44 -140 -80 -143 -80
-3 0 -6 662 -6 1470 l0 1470 -359 0 -358 0 -5 -2107z"/>
<path d="M8543 11958 c-73 -216 -249 -729 -298 -868 -26 -74 -82 -238 -125
-365 -43 -126 -136 -396 -205 -600 -70 -203 -182 -532 -250 -730 -67 -198
-146 -427 -174 -510 -29 -82 -53 -154 -54 -159 -1 -4 155 -62 346 -129 285
-98 351 -118 358 -106 5 8 18 41 28 74 10 33 67 200 126 370 59 171 151 438
205 595 53 157 141 411 194 565 54 154 108 314 121 355 13 41 47 143 76 225
28 83 84 247 125 365 40 118 118 347 173 508 68 199 96 294 88 297 -7 3 -158
54 -337 114 -179 60 -332 112 -340 115 -12 5 -24 -20 -57 -116z"/>
<path d="M6264 12016 l-112 -29 18 -66 c10 -36 53 -196 95 -356 43 -159 79
-292 81 -294 6 -6 224 54 224 62 0 13 -180 680 -188 697 -6 14 -21 12 -118
-14z"/>
<path d="M5727 11869 c-40 -8 -660 -172 -693 -183 -8 -3 -5 -27 9 -79 l19 -74
60 15 c32 8 61 12 64 9 9 -9 113 -400 109 -407 -2 -4 -29 -13 -60 -20 -30 -7
-55 -17 -55 -22 0 -5 7 -38 16 -73 11 -43 21 -65 31 -65 41 0 774 205 817 228
63 35 86 76 86 157 0 108 -58 186 -139 189 -23 0 -41 3 -41 7 0 3 11 16 25 29
70 66 43 225 -47 280 -36 22 -114 25 -201 9z m45 -196 c26 -23 23 -69 -4 -87
-23 -15 -272 -86 -301 -86 -10 0 -21 19 -32 56 -9 31 -15 58 -13 60 2 2 60 19
128 38 142 39 195 44 222 19z m98 -263 c25 -25 26 -64 1 -87 -17 -16 -339
-110 -345 -101 -1 2 -8 22 -14 44 -23 79 -28 75 141 120 178 49 191 50 217 24z"/>
<path d="M15041 11245 c-23 -41 -39 -79 -36 -85 4 -6 24 -19 45 -30 21 -11 42
-24 45 -30 7 -12 -172 -330 -186 -330 -5 0 -27 11 -49 25 -22 14 -45 25 -52
25 -7 0 -32 -33 -55 -73 -38 -66 -40 -73 -25 -85 33 -25 639 -372 697 -398 69
-32 152 -36 200 -12 70 37 160 159 236 322 35 76 48 165 30 219 -23 67 -82
110 -443 319 -193 112 -354 204 -357 206 -4 1 -26 -31 -50 -73z m433 -370
c184 -106 199 -130 143 -240 -61 -122 -113 -172 -167 -160 -24 5 -217 110
-297 161 l-22 14 70 123 c106 181 110 188 123 185 6 -2 74 -39 150 -83z"/>
<path d="M12732 10924 c-60 -36 -92 -60 -88 -69 2 -7 54 -100 115 -206 129
-224 134 -241 72 -298 -21 -20 -93 -67 -160 -105 -144 -82 -203 -95 -243 -55
-13 14 -72 111 -133 217 -60 105 -113 192 -117 192 -8 0 -179 -98 -191 -109
-4 -4 41 -92 101 -195 241 -418 280 -430 657 -214 206 118 255 151 307 203 70
70 85 142 49 232 -23 60 -252 455 -266 459 -5 2 -52 -22 -103 -52z"/>
<path d="M16122 10629 c-66 -20 -160 -141 -246 -318 -74 -151 -71 -217 12
-300 49 -49 532 -338 613 -366 95 -34 189 -8 252 69 52 62 175 283 193 344 36
123 -18 195 -252 334 -381 225 -478 266 -572 237z m336 -317 c85 -48 172 -103
194 -123 36 -30 41 -41 40 -73 -2 -62 -103 -225 -152 -246 -37 -15 -68 -3
-225 90 -238 140 -250 153 -224 233 18 56 109 189 139 204 37 18 60 9 228 -85z"/>
<path d="M11645 10301 c-57 -27 -651 -365 -668 -381 -5 -4 11 -42 35 -83 l43
-76 55 34 c49 30 55 32 65 17 7 -9 67 -114 135 -232 67 -118 129 -221 135
-229 11 -11 29 -4 109 43 53 31 96 59 96 63 0 3 -18 37 -40 75 -22 39 -40 75
-40 81 0 17 256 160 285 160 33 0 51 -17 92 -81 33 -50 36 -53 56 -39 12 7 57
33 100 57 42 24 77 47 77 50 0 17 -75 129 -106 159 -34 32 -40 33 -90 28 -30
-3 -54 -2 -54 2 0 5 10 21 23 37 17 22 22 41 22 84 -1 56 -24 108 -83 187 -58
79 -141 93 -247 44z m74 -220 c56 -56 60 -116 12 -150 -57 -41 -254 -150 -261
-146 -17 11 -90 149 -83 156 15 15 238 142 263 149 39 13 49 11 69 -9z"/>
<path d="M2360 7345 l0 -735 7655 0 7655 0 0 735 0 735 -7655 0 -7655 0 0
-735z m5753 500 c178 -46 292 -170 331 -358 67 -322 -81 -594 -352 -647 -88
-18 -242 -8 -313 19 -205 78 -315 279 -295 537 18 238 136 394 339 449 69 18
219 19 290 0z m3621 -10 c32 -9 82 -27 112 -40 l54 -24 0 -100 c0 -80 -3 -101
-14 -101 -8 0 -47 20 -88 45 -94 59 -162 79 -263 79 -98 -1 -168 -28 -221 -86
-59 -66 -77 -119 -82 -235 -8 -183 40 -283 164 -344 60 -30 75 -33 163 -33 53
0 102 3 109 7 8 6 12 41 12 118 l0 109 -110 0 -110 0 0 80 0 80 220 0 220 0 0
-239 0 -240 -54 -20 c-128 -48 -176 -56 -331 -55 -129 0 -158 3 -210 22 -173
64 -278 198 -305 389 -43 299 92 523 360 598 71 19 289 14 374 -10z m5442 14
c32 -5 89 -20 127 -32 l67 -21 0 -103 c0 -118 -3 -121 -72 -74 -73 49 -161 74
-263 75 -74 0 -98 -4 -132 -22 -23 -12 -47 -31 -53 -41 -17 -33 -12 -89 10
-111 28 -28 53 -37 205 -71 208 -47 293 -100 330 -208 32 -96 10 -201 -59
-278 -81 -90 -196 -133 -362 -133 -106 0 -179 11 -291 47 l-83 25 0 109 c0
124 3 128 70 80 22 -16 69 -40 103 -54 211 -85 421 -40 404 86 -10 70 -34 84
-219 123 -68 14 -149 37 -181 51 -69 31 -138 102 -155 161 -18 60 -15 160 7
207 37 80 130 149 244 180 63 17 221 19 303 4z m-13882 -24 c129 -27 190 -94
190 -210 1 -77 -25 -128 -87 -175 l-46 -34 47 -15 c65 -21 135 -92 150 -153
46 -183 -57 -335 -256 -377 -31 -6 -157 -11 -302 -11 l-250 0 0 495 0 495 243
0 c174 0 261 -4 311 -15z m936 -60 l0 -74 -82 -3 -83 -3 -3 -342 -2 -343 85 0
85 0 0 -75 0 -75 -275 0 -275 0 0 75 0 75 80 0 80 0 0 345 0 345 -80 0 -80 0
0 75 0 75 275 0 275 0 0 -75z m778 50 c71 -25 134 -82 162 -147 30 -70 25
-170 -13 -244 -26 -52 -89 -116 -133 -136 -13 -6 -24 -14 -24 -18 0 -4 74 -98
165 -209 91 -112 165 -205 165 -207 0 -2 -60 -4 -134 -4 l-134 0 -144 183
-144 182 -67 3 -67 3 0 -186 0 -185 -110 0 -110 0 0 496 0 495 268 -3 c229 -3
275 -7 320 -23z m632 -328 c0 -346 0 -354 23 -397 28 -56 73 -87 141 -95 67
-9 152 14 185 48 46 50 51 95 51 459 l0 338 110 0 110 0 0 -354 c0 -326 -2
-359 -20 -419 -51 -165 -204 -246 -443 -235 -193 10 -299 77 -359 227 -21 54
-22 72 -26 419 l-4 362 116 0 116 0 0 -353z m1397 330 c88 -26 145 -58 204
-116 91 -92 129 -194 129 -351 0 -52 -6 -118 -14 -146 -34 -127 -132 -251
-240 -300 -92 -42 -186 -54 -422 -54 l-214 0 0 496 0 496 253 -5 c186 -3 266
-8 304 -20z m2733 -57 l0 -80 -235 0 -235 0 0 -110 0 -110 220 0 220 0 0 -80
0 -80 -220 0 -220 0 0 -145 0 -145 235 0 235 0 0 -80 0 -80 -345 0 -345 0 0
495 0 495 345 0 345 0 0 -80z m645 -231 l190 -311 3 311 2 311 105 0 105 0 0
-495 0 -495 -109 0 -109 0 -219 356 -218 357 -3 -357 -2 -356 -100 0 -100 0 0
495 0 495 133 0 132 0 190 -311z m2185 236 l0 -74 -82 -3 -83 -3 -3 -342 -2
-343 85 0 85 0 0 -75 0 -75 -275 0 -275 0 0 75 0 75 80 0 80 0 0 345 0 345
-80 0 -80 0 0 75 0 75 275 0 275 0 0 -75z m645 -236 l190 -311 3 311 2 311
105 0 105 0 0 -495 0 -495 -109 0 -109 0 -219 356 -218 357 -3 -357 -2 -356
-100 0 -100 0 0 495 0 495 133 0 132 0 190 -311z m1325 231 l0 -80 -235 0
-235 0 0 -110 0 -110 220 0 220 0 0 -80 0 -80 -220 0 -220 0 0 -145 0 -145
235 0 235 0 0 -80 0 -80 -345 0 -345 0 0 495 0 495 345 0 345 0 0 -80z m880 0
l0 -80 -235 0 -235 0 0 -110 0 -110 220 0 220 0 0 -80 0 -80 -220 0 -220 0 0
-145 0 -145 235 0 235 0 0 -80 0 -80 -345 0 -345 0 0 495 0 495 345 0 345 0 0
-80z m788 55 c71 -25 134 -82 162 -147 30 -70 25 -170 -13 -244 -26 -52 -89
-116 -133 -136 -13 -6 -24 -14 -24 -18 0 -4 74 -98 165 -209 91 -112 165 -205
165 -207 0 -2 -60 -4 -134 -4 l-134 0 -144 183 -144 182 -67 3 -67 3 0 -186 0
-185 -110 0 -110 0 0 496 0 495 268 -3 c229 -3 275 -7 320 -23z"/>
<path d="M7915 7691 c-79 -20 -121 -58 -162 -146 -26 -57 -28 -67 -28 -200 0
-133 2 -143 28 -200 51 -108 110 -149 217 -149 163 0 251 123 251 349 0 213
-79 334 -227 349 -27 3 -62 1 -79 -3z"/>
<path d="M2960 7565 l0 -115 69 0 c100 0 172 16 201 45 33 34 36 114 5 145
-24 24 -108 40 -207 40 l-68 0 0 -115z"/>
<path d="M2960 7155 l0 -148 124 5 c186 7 241 41 241 149 0 53 -25 96 -68 117
-15 7 -84 15 -162 19 l-135 6 0 -148z"/>
<path d="M4640 7525 l0 -158 100 6 c152 8 208 45 218 145 6 65 -18 115 -64
137 -23 11 -74 19 -145 22 l-109 6 0 -158z"/>
<path d="M6700 7343 l0 -336 103 6 c187 10 277 66 317 194 38 123 19 284 -44
365 -52 69 -165 108 -313 108 l-63 0 0 -337z"/>
<path d="M15870 7525 l0 -158 100 6 c152 8 208 45 218 145 6 65 -18 115 -64
137 -23 11 -74 19 -145 22 l-109 6 0 -158z"/>
</g>
</svg>
